<mxfile host="app.diagrams.net" modified="2021-06-07T17:08:37.457Z" agent="5.0 (X11)" etag="zk2aw8acXTQACQ6zPvuk" version="14.7.6" type="github" pages="2">
  <diagram id="ngdmywiYoB712Vu0CHRt" name="Title">
    <mxGraphModel dx="2966" dy="1617" grid="1" gridSize="15" guides="1" tooltips="1" connect="1" arrows="1" fold="1" page="1" pageScale="1" pageWidth="1600" pageHeight="900" math="0" shadow="0">
      <root>
        <mxCell id="0" />
        <mxCell id="1" parent="0" />
        <mxCell id="2AE6hsmQIt2O_XX1W-Dk-1" value="&lt;b&gt;FunSQL&lt;/b&gt;&lt;br style=&quot;font-size: 64px&quot;&gt; A library for compositional construction&lt;br&gt; of SQL queries" style="text;html=1;align=center;verticalAlign=middle;resizable=0;points=[];autosize=1;strokeColor=none;fontFamily=Ubuntu;fontSource=https%3A%2F%2Ffonts.googleapis.com%2Fcss%3Ffamily%3DUbuntu;fontSize=64;" vertex="1" parent="1">
          <mxGeometry x="215" y="90" width="1170" height="240" as="geometry" />
        </mxCell>
        <mxCell id="2AE6hsmQIt2O_XX1W-Dk-2" value="Clark C. Evans,&lt;br style=&quot;font-size: 48px&quot;&gt; Kyrylo Simonov" style="text;html=1;align=left;verticalAlign=middle;resizable=0;points=[];autosize=1;strokeColor=none;fontSize=48;" vertex="1" parent="1">
          <mxGeometry x="1025" y="600" width="360" height="120" as="geometry" />
        </mxCell>
        <mxCell id="2AE6hsmQIt2O_XX1W-Dk-3" value="JuliaCon 2021" style="text;html=1;align=center;verticalAlign=middle;resizable=0;points=[];autosize=1;strokeColor=none;fontSize=32;" vertex="1" parent="1">
          <mxGeometry x="688" y="795" width="225" height="45" as="geometry" />
        </mxCell>
        <mxCell id="2AE6hsmQIt2O_XX1W-Dk-4" value="https://github.com/MechanicalRabbit/FunSQL.jl" style="text;html=1;align=center;verticalAlign=middle;resizable=0;points=[];autosize=1;strokeColor=none;fontSize=48;" vertex="1" parent="1">
          <mxGeometry x="290" y="420" width="1020" height="60" as="geometry" />
        </mxCell>
      </root>
    </mxGraphModel>
  </diagram>
  <diagram name="Why FunSQL?" id="dfdD1iDO_3xXHZGz8lDK">
    <mxGraphModel dx="1221" dy="666" grid="1" gridSize="15" guides="1" tooltips="1" connect="1" arrows="1" fold="1" page="1" pageScale="1" pageWidth="1600" pageHeight="900" math="0" shadow="0">
      <root>
        <mxCell id="eD3fXNo9wMKI3Vn864ez-0" />
        <mxCell id="eD3fXNo9wMKI3Vn864ez-1" parent="eD3fXNo9wMKI3Vn864ez-0" />
        <mxCell id="eD3fXNo9wMKI3Vn864ez-11" value="Find all patients born in or after 1970." style="text;html=1;align=center;verticalAlign=middle;resizable=0;points=[];autosize=1;strokeColor=none;fontSize=32;fontFamily=Ubuntu;fontColor=#000000;fontStyle=2" vertex="1" parent="eD3fXNo9wMKI3Vn864ez-1">
          <mxGeometry x="60" y="75" width="570" height="45" as="geometry" />
        </mxCell>
        <mxCell id="eD3fXNo9wMKI3Vn864ez-12" value="function find_patients(conn)&lt;br&gt;&amp;nbsp;&amp;nbsp;&amp;nbsp; sql = &quot;&quot;&quot;&lt;br&gt;&amp;nbsp;&amp;nbsp;&amp;nbsp; SELECT p.person_id&lt;br&gt;&amp;nbsp;&amp;nbsp;&amp;nbsp; FROM person p&lt;br&gt;&amp;nbsp;&amp;nbsp;&amp;nbsp; WHERE p.year_of_birth &amp;gt;= 1970&lt;br&gt;&amp;nbsp;&amp;nbsp;&amp;nbsp; &quot;&quot;&quot;&lt;br&gt;&amp;nbsp;&amp;nbsp;&amp;nbsp; DBInterface.execute(conn, sql)&lt;br&gt;end" style="text;html=1;align=left;verticalAlign=middle;resizable=0;points=[];autosize=1;strokeColor=none;fontSize=32;fontFamily=Ubuntu Mono;fontColor=#000000;fontSource=https%3A%2F%2Ffonts.googleapis.com%2Fcss%3Ffamily%3DUbuntu%2BMono;" vertex="1" parent="eD3fXNo9wMKI3Vn864ez-1">
          <mxGeometry x="60" y="180" width="570" height="315" as="geometry" />
        </mxCell>
        <mxCell id="eD3fXNo9wMKI3Vn864ez-13" value="" style="group" vertex="1" connectable="0" parent="eD3fXNo9wMKI3Vn864ez-1">
          <mxGeometry y="854" width="1600" height="45" as="geometry" />
        </mxCell>
        <mxCell id="eD3fXNo9wMKI3Vn864ez-7" value="&lt;div style=&quot;font-size: 24px&quot;&gt;FunSQL: a library for compositional construction of SQL queries&lt;/div&gt;" style="rounded=0;whiteSpace=wrap;html=1;fontSize=24;align=center;fontFamily=Ubuntu;fontSource=https%3A%2F%2Ffonts.googleapis.com%2Fcss%3Ffamily%3DUbuntu;strokeColor=none;fillColor=#0072B2;fontColor=#FFFFFF;" vertex="1" parent="eD3fXNo9wMKI3Vn864ez-13">
          <mxGeometry width="840" height="45" as="geometry" />
        </mxCell>
        <mxCell id="eD3fXNo9wMKI3Vn864ez-8" value="JuliaCon 2021" style="rounded=0;whiteSpace=wrap;html=1;fontSize=24;align=center;fontFamily=Ubuntu;fontSource=https%3A%2F%2Ffonts.googleapis.com%2Fcss%3Ffamily%3DUbuntu;strokeColor=none;fillColor=#009E73;fontColor=#FFFFFF;" vertex="1" parent="eD3fXNo9wMKI3Vn864ez-13">
          <mxGeometry x="1320" width="280" height="45" as="geometry" />
        </mxCell>
        <mxCell id="eD3fXNo9wMKI3Vn864ez-9" value="Clark C. Evans, Kyrylo Simonov" style="rounded=0;whiteSpace=wrap;html=1;fontSize=24;align=center;fontFamily=Ubuntu;fontSource=https%3A%2F%2Ffonts.googleapis.com%2Fcss%3Ffamily%3DUbuntu;strokeColor=none;fillColor=#56B4E9;fontColor=#FFFFFF;" vertex="1" parent="eD3fXNo9wMKI3Vn864ez-13">
          <mxGeometry x="840" width="480" height="45" as="geometry" />
        </mxCell>
        <mxCell id="eD3fXNo9wMKI3Vn864ez-14" value="Find all patients born between" style="text;html=1;align=center;verticalAlign=middle;resizable=0;points=[];autosize=1;strokeColor=none;fontSize=32;fontFamily=Ubuntu;fontColor=#000000;fontStyle=2" vertex="1" parent="eD3fXNo9wMKI3Vn864ez-1">
          <mxGeometry x="60" y="975" width="465" height="45" as="geometry" />
        </mxCell>
        <mxCell id="eD3fXNo9wMKI3Vn864ez-15" value="and" style="text;html=1;align=center;verticalAlign=middle;resizable=0;points=[];autosize=1;strokeColor=none;fontSize=32;fontFamily=Ubuntu;fontColor=#000000;fontStyle=2" vertex="1" parent="eD3fXNo9wMKI3Vn864ez-1">
          <mxGeometry x="705" y="975" width="75" height="45" as="geometry" />
        </mxCell>
        <mxCell id="eD3fXNo9wMKI3Vn864ez-16" value="&lt;table style=&quot;width: 100%; height: 100%; font-size: 24px;&quot; cellspacing=&quot;0&quot; cellpadding=&quot;0&quot;&gt;&lt;tbody style=&quot;font-size: 24px;&quot;&gt;&lt;tr style=&quot;font-size: 24px;&quot;&gt;&lt;td style=&quot;width: 85%; font-size: 24px;&quot;&gt;1970&lt;/td&gt;&lt;td style=&quot;width: 15%; font-size: 24px;&quot;&gt;&lt;br style=&quot;font-size: 24px;&quot;&gt;&lt;/td&gt;&lt;/tr&gt;&lt;/tbody&gt;&lt;/table&gt;" style="strokeWidth=1;shadow=0;dashed=0;align=center;html=1;shape=mxgraph.mockup.forms.spinner;strokeColor=#999999;spinLayout=right;spinStyle=normal;adjStyle=triangle;fillColor=#aaddff;fontSize=24;fontColor=#666666;mainText=;html=1;overflow=fill;fontFamily=Ubuntu;fontSource=https%3A%2F%2Ffonts.googleapis.com%2Fcss%3Ffamily%3DUbuntu;" vertex="1" parent="eD3fXNo9wMKI3Vn864ez-1">
          <mxGeometry x="540" y="975" width="150" height="45" as="geometry" />
        </mxCell>
        <mxCell id="eD3fXNo9wMKI3Vn864ez-17" value="&lt;table style=&quot;width: 100% ; height: 100% ; font-size: 24px&quot; cellspacing=&quot;0&quot; cellpadding=&quot;0&quot;&gt;&lt;tbody style=&quot;font-size: 24px&quot;&gt;&lt;tr style=&quot;font-size: 24px&quot;&gt;&lt;td style=&quot;width: 85% ; font-size: 24px&quot;&gt;&lt;br&gt;&lt;/td&gt;&lt;td style=&quot;width: 15% ; font-size: 24px&quot;&gt;&lt;br style=&quot;font-size: 24px&quot;&gt;&lt;/td&gt;&lt;/tr&gt;&lt;/tbody&gt;&lt;/table&gt;" style="strokeWidth=1;shadow=0;dashed=0;align=center;html=1;shape=mxgraph.mockup.forms.spinner;strokeColor=#999999;spinLayout=right;spinStyle=normal;adjStyle=triangle;fillColor=#aaddff;fontSize=24;fontColor=#666666;mainText=;html=1;overflow=fill;fontFamily=Ubuntu;fontSource=https%3A%2F%2Ffonts.googleapis.com%2Fcss%3Ffamily%3DUbuntu;" vertex="1" parent="eD3fXNo9wMKI3Vn864ez-1">
          <mxGeometry x="795" y="975" width="150" height="45" as="geometry" />
        </mxCell>
        <mxCell id="eD3fXNo9wMKI3Vn864ez-18" value="function find_patients(conn; start_year = nothing, end_year = nothing)&lt;br&gt;&amp;nbsp;&amp;nbsp;&amp;nbsp; sql = &quot;&quot;&quot;&lt;br&gt;&amp;nbsp;&amp;nbsp;&amp;nbsp; SELECT p.person_id&lt;br&gt;&amp;nbsp;&amp;nbsp;&amp;nbsp; FROM person p&lt;br&gt;&amp;nbsp;&amp;nbsp;&amp;nbsp; &quot;&quot;&quot;&lt;br&gt;&amp;nbsp;&amp;nbsp;&amp;nbsp; predicates = String[]&lt;br&gt;&amp;nbsp;&amp;nbsp;&amp;nbsp; if start_year !== nothing&lt;br&gt;&amp;nbsp;&amp;nbsp;&amp;nbsp;&amp;nbsp;&amp;nbsp;&amp;nbsp;&amp;nbsp; push!(predicates, &quot;p.year_of_birth &amp;gt;= $start_year&quot;)&lt;br&gt;&amp;nbsp;&amp;nbsp;&amp;nbsp; end&lt;br&gt;&amp;nbsp;&amp;nbsp;&amp;nbsp; if end_year !== nothing&lt;br&gt;&amp;nbsp;&amp;nbsp;&amp;nbsp;&amp;nbsp;&amp;nbsp;&amp;nbsp;&amp;nbsp; push!(predicates, &quot;p.year_of_birth &amp;lt;= $end_year&quot;)&lt;br&gt;&amp;nbsp;&amp;nbsp;&amp;nbsp; end&lt;br&gt;&amp;nbsp;&amp;nbsp;&amp;nbsp; if !isempty(predicates)&lt;br&gt;&amp;nbsp;&amp;nbsp;&amp;nbsp;&amp;nbsp;&amp;nbsp;&amp;nbsp;&amp;nbsp; sql *=&amp;nbsp; &quot;\nWHERE &quot; * join(predicates, &quot; AND &quot;)&lt;br&gt;&amp;nbsp;&amp;nbsp;&amp;nbsp; end&lt;br&gt;&amp;nbsp;&amp;nbsp;&amp;nbsp; DBInterface.execute(conn, sql)&lt;br&gt;end" style="text;html=1;align=left;verticalAlign=middle;resizable=0;points=[];autosize=1;strokeColor=none;fontSize=32;fontFamily=Ubuntu Mono;fontColor=#000000;fontSource=https%3A%2F%2Ffonts.googleapis.com%2Fcss%3Ffamily%3DUbuntu%2BMono;" vertex="1" parent="eD3fXNo9wMKI3Vn864ez-1">
          <mxGeometry x="60" y="1080" width="1140" height="660" as="geometry" />
        </mxCell>
        <mxCell id="eD3fXNo9wMKI3Vn864ez-21" value="" style="group" vertex="1" connectable="0" parent="eD3fXNo9wMKI3Vn864ez-1">
          <mxGeometry y="1754" width="1600" height="45" as="geometry" />
        </mxCell>
        <mxCell id="eD3fXNo9wMKI3Vn864ez-22" value="&lt;div style=&quot;font-size: 24px&quot;&gt;FunSQL: a library for compositional construction of SQL queries&lt;/div&gt;" style="rounded=0;whiteSpace=wrap;html=1;fontSize=24;align=center;fontFamily=Ubuntu;fontSource=https%3A%2F%2Ffonts.googleapis.com%2Fcss%3Ffamily%3DUbuntu;strokeColor=none;fillColor=#0072B2;fontColor=#FFFFFF;" vertex="1" parent="eD3fXNo9wMKI3Vn864ez-21">
          <mxGeometry width="840" height="45" as="geometry" />
        </mxCell>
        <mxCell id="eD3fXNo9wMKI3Vn864ez-23" value="JuliaCon 2021" style="rounded=0;whiteSpace=wrap;html=1;fontSize=24;align=center;fontFamily=Ubuntu;fontSource=https%3A%2F%2Ffonts.googleapis.com%2Fcss%3Ffamily%3DUbuntu;strokeColor=none;fillColor=#009E73;fontColor=#FFFFFF;" vertex="1" parent="eD3fXNo9wMKI3Vn864ez-21">
          <mxGeometry x="1320" width="280" height="45" as="geometry" />
        </mxCell>
        <mxCell id="eD3fXNo9wMKI3Vn864ez-24" value="Clark C. Evans, Kyrylo Simonov" style="rounded=0;whiteSpace=wrap;html=1;fontSize=24;align=center;fontFamily=Ubuntu;fontSource=https%3A%2F%2Ffonts.googleapis.com%2Fcss%3Ffamily%3DUbuntu;strokeColor=none;fillColor=#56B4E9;fontColor=#FFFFFF;" vertex="1" parent="eD3fXNo9wMKI3Vn864ez-21">
          <mxGeometry x="840" width="480" height="45" as="geometry" />
        </mxCell>
        <mxCell id="eD3fXNo9wMKI3Vn864ez-25" value="" style="group" vertex="1" connectable="0" parent="eD3fXNo9wMKI3Vn864ez-1">
          <mxGeometry y="2654" width="1600" height="45" as="geometry" />
        </mxCell>
        <mxCell id="eD3fXNo9wMKI3Vn864ez-26" value="&lt;div style=&quot;font-size: 24px&quot;&gt;FunSQL: a library for compositional construction of SQL queries&lt;/div&gt;" style="rounded=0;whiteSpace=wrap;html=1;fontSize=24;align=center;fontFamily=Ubuntu;fontSource=https%3A%2F%2Ffonts.googleapis.com%2Fcss%3Ffamily%3DUbuntu;strokeColor=none;fillColor=#0072B2;fontColor=#FFFFFF;" vertex="1" parent="eD3fXNo9wMKI3Vn864ez-25">
          <mxGeometry width="840" height="45" as="geometry" />
        </mxCell>
        <mxCell id="eD3fXNo9wMKI3Vn864ez-27" value="JuliaCon 2021" style="rounded=0;whiteSpace=wrap;html=1;fontSize=24;align=center;fontFamily=Ubuntu;fontSource=https%3A%2F%2Ffonts.googleapis.com%2Fcss%3Ffamily%3DUbuntu;strokeColor=none;fillColor=#009E73;fontColor=#FFFFFF;" vertex="1" parent="eD3fXNo9wMKI3Vn864ez-25">
          <mxGeometry x="1320" width="280" height="45" as="geometry" />
        </mxCell>
        <mxCell id="eD3fXNo9wMKI3Vn864ez-28" value="Clark C. Evans, Kyrylo Simonov" style="rounded=0;whiteSpace=wrap;html=1;fontSize=24;align=center;fontFamily=Ubuntu;fontSource=https%3A%2F%2Ffonts.googleapis.com%2Fcss%3Ffamily%3DUbuntu;strokeColor=none;fillColor=#56B4E9;fontColor=#FFFFFF;" vertex="1" parent="eD3fXNo9wMKI3Vn864ez-25">
          <mxGeometry x="840" width="480" height="45" as="geometry" />
        </mxCell>
        <mxCell id="eD3fXNo9wMKI3Vn864ez-29" value="Find all patients born between" style="text;html=1;align=center;verticalAlign=middle;resizable=0;points=[];autosize=1;strokeColor=none;fontSize=32;fontFamily=Ubuntu;fontColor=#000000;fontStyle=2" vertex="1" parent="eD3fXNo9wMKI3Vn864ez-1">
          <mxGeometry x="60" y="1875" width="465" height="45" as="geometry" />
        </mxCell>
        <mxCell id="eD3fXNo9wMKI3Vn864ez-30" value="and" style="text;html=1;align=center;verticalAlign=middle;resizable=0;points=[];autosize=1;strokeColor=none;fontSize=32;fontFamily=Ubuntu;fontColor=#000000;fontStyle=2" vertex="1" parent="eD3fXNo9wMKI3Vn864ez-1">
          <mxGeometry x="450" y="1935" width="75" height="45" as="geometry" />
        </mxCell>
        <mxCell id="eD3fXNo9wMKI3Vn864ez-31" value="&lt;table style=&quot;width: 100%; height: 100%; font-size: 24px;&quot; cellspacing=&quot;0&quot; cellpadding=&quot;0&quot;&gt;&lt;tbody style=&quot;font-size: 24px;&quot;&gt;&lt;tr style=&quot;font-size: 24px;&quot;&gt;&lt;td style=&quot;width: 85%; font-size: 24px;&quot;&gt;1970&lt;/td&gt;&lt;td style=&quot;width: 15%; font-size: 24px;&quot;&gt;&lt;br style=&quot;font-size: 24px;&quot;&gt;&lt;/td&gt;&lt;/tr&gt;&lt;/tbody&gt;&lt;/table&gt;" style="strokeWidth=1;shadow=0;dashed=0;align=center;html=1;shape=mxgraph.mockup.forms.spinner;strokeColor=#999999;spinLayout=right;spinStyle=normal;adjStyle=triangle;fillColor=#aaddff;fontSize=24;fontColor=#666666;mainText=;html=1;overflow=fill;fontFamily=Ubuntu;fontSource=https%3A%2F%2Ffonts.googleapis.com%2Fcss%3Ffamily%3DUbuntu;" vertex="1" parent="eD3fXNo9wMKI3Vn864ez-1">
          <mxGeometry x="540" y="1875" width="150" height="45" as="geometry" />
        </mxCell>
        <mxCell id="eD3fXNo9wMKI3Vn864ez-32" value="&lt;table style=&quot;width: 100% ; height: 100% ; font-size: 24px&quot; cellspacing=&quot;0&quot; cellpadding=&quot;0&quot;&gt;&lt;tbody style=&quot;font-size: 24px&quot;&gt;&lt;tr style=&quot;font-size: 24px&quot;&gt;&lt;td style=&quot;width: 85% ; font-size: 24px&quot;&gt;&lt;br&gt;&lt;/td&gt;&lt;td style=&quot;width: 15% ; font-size: 24px&quot;&gt;&lt;br style=&quot;font-size: 24px&quot;&gt;&lt;/td&gt;&lt;/tr&gt;&lt;/tbody&gt;&lt;/table&gt;" style="strokeWidth=1;shadow=0;dashed=0;align=center;html=1;shape=mxgraph.mockup.forms.spinner;strokeColor=#999999;spinLayout=right;spinStyle=normal;adjStyle=triangle;fillColor=#aaddff;fontSize=24;fontColor=#666666;mainText=;html=1;overflow=fill;fontFamily=Ubuntu;fontSource=https%3A%2F%2Ffonts.googleapis.com%2Fcss%3Ffamily%3DUbuntu;" vertex="1" parent="eD3fXNo9wMKI3Vn864ez-1">
          <mxGeometry x="540" y="1935" width="150" height="45" as="geometry" />
        </mxCell>
        <mxCell id="eD3fXNo9wMKI3Vn864ez-33" value="living in" style="text;html=1;align=center;verticalAlign=middle;resizable=0;points=[];autosize=1;strokeColor=none;fontSize=32;fontFamily=Ubuntu;fontColor=#000000;fontStyle=2" vertex="1" parent="eD3fXNo9wMKI3Vn864ez-1">
          <mxGeometry x="390" y="1995" width="135" height="45" as="geometry" />
        </mxCell>
        <mxCell id="eD3fXNo9wMKI3Vn864ez-34" value="&lt;div align=&quot;center&quot;&gt;&amp;nbsp;&amp;nbsp;&amp;nbsp;&amp;nbsp;&amp;nbsp;&amp;nbsp;&amp;nbsp; IL&lt;/div&gt;" style="strokeWidth=1;shadow=0;dashed=0;align=center;html=1;shape=mxgraph.mockup.forms.comboBox;strokeColor=#999999;fillColor=#ddeeff;align=left;fillColor2=#aaddff;mainText=;fontColor=#666666;fontSize=24;spacingLeft=3;fontFamily=Ubuntu;fontSource=https%3A%2F%2Ffonts.googleapis.com%2Fcss%3Ffamily%3DUbuntu;" vertex="1" parent="eD3fXNo9wMKI3Vn864ez-1">
          <mxGeometry x="540" y="1995" width="150" height="45" as="geometry" />
        </mxCell>
        <mxCell id="eD3fXNo9wMKI3Vn864ez-35" value="with conditions" style="text;html=1;align=center;verticalAlign=middle;resizable=0;points=[];autosize=1;strokeColor=none;fontSize=32;fontFamily=Ubuntu;fontColor=#000000;fontStyle=2" vertex="1" parent="eD3fXNo9wMKI3Vn864ez-1">
          <mxGeometry x="285" y="2055" width="240" height="45" as="geometry" />
        </mxCell>
        <mxCell id="eD3fXNo9wMKI3Vn864ez-36" value="" style="strokeWidth=1;shadow=0;dashed=0;align=center;html=1;shape=mxgraph.mockup.misc.rrect;rSize=0;strokeColor=#999999;fillColor=#ffffff;fontFamily=Ubuntu;fontSource=https%3A%2F%2Ffonts.googleapis.com%2Fcss%3Ffamily%3DUbuntu;fontSize=24;fontColor=#000000;" vertex="1" parent="eD3fXNo9wMKI3Vn864ez-1">
          <mxGeometry x="540" y="2055" width="495" height="45" as="geometry" />
        </mxCell>
        <mxCell id="eD3fXNo9wMKI3Vn864ez-37" value="Hypertension" style="strokeWidth=1;shadow=0;dashed=0;align=center;html=1;shape=mxgraph.mockup.misc.rrect;rSize=5;strokeColor=none;fontSize=24;fontColor=#999999;fillColor=#ddeeff;align=left;spacingLeft=5;" vertex="1" parent="eD3fXNo9wMKI3Vn864ez-36">
          <mxGeometry x="4.95" y="7.5" width="160.05" height="30" as="geometry" />
        </mxCell>
        <mxCell id="eD3fXNo9wMKI3Vn864ez-38" value="Arrhythmia" style="strokeWidth=1;shadow=0;dashed=0;align=center;html=1;shape=mxgraph.mockup.misc.rrect;rSize=5;strokeColor=none;fontSize=24;fontColor=#999999;fillColor=#ddeeff;align=left;spacingLeft=5;" vertex="1" parent="eD3fXNo9wMKI3Vn864ez-36">
          <mxGeometry x="180" y="7.5" width="135" height="30" as="geometry" />
        </mxCell>
        <mxCell id="eD3fXNo9wMKI3Vn864ez-39" value="" style="strokeWidth=1;shadow=0;dashed=0;align=center;html=1;shape=mxgraph.mockup.misc.rrect;rSize=5;strokeColor=none;fontSize=24;fontColor=#999999;fillColor=#ddeeff;align=left;spacingLeft=5;" vertex="1" parent="eD3fXNo9wMKI3Vn864ez-36">
          <mxGeometry x="330" y="7.5" width="113.85" height="30" as="geometry" />
        </mxCell>
        <mxCell id="eD3fXNo9wMKI3Vn864ez-40" value="" style="strokeWidth=1;shadow=0;dashed=0;align=center;html=1;shape=mxgraph.mockup.misc.anchor;" vertex="1" parent="eD3fXNo9wMKI3Vn864ez-36">
          <mxGeometry x="490.05" y="22.5" as="geometry" />
        </mxCell>
        <mxCell id="eD3fXNo9wMKI3Vn864ez-42" value="" style="strokeWidth=1;shadow=0;dashed=0;align=center;html=1;shape=mxgraph.mockup.misc.anchor;" vertex="1" parent="eD3fXNo9wMKI3Vn864ez-36">
          <mxGeometry x="460.35" y="22.5" as="geometry" />
        </mxCell>
        <mxCell id="eD3fXNo9wMKI3Vn864ez-44" value="who visited a doctor" style="text;html=1;align=center;verticalAlign=middle;resizable=0;points=[];autosize=1;strokeColor=none;fontSize=32;fontFamily=Ubuntu;fontColor=#000000;fontStyle=2" vertex="1" parent="eD3fXNo9wMKI3Vn864ez-1">
          <mxGeometry x="210" y="2115" width="315" height="45" as="geometry" />
        </mxCell>
        <mxCell id="eD3fXNo9wMKI3Vn864ez-45" value="&amp;nbsp;within last 12 months" style="strokeWidth=1;shadow=0;dashed=0;align=center;html=1;shape=mxgraph.mockup.forms.comboBox;strokeColor=#999999;fillColor=#ddeeff;align=left;fillColor2=#aaddff;mainText=;fontColor=#666666;fontSize=24;spacingLeft=3;fontFamily=Ubuntu;fontSource=https%3A%2F%2Ffonts.googleapis.com%2Fcss%3Ffamily%3DUbuntu;" vertex="1" parent="eD3fXNo9wMKI3Vn864ez-1">
          <mxGeometry x="540" y="2115" width="300" height="45" as="geometry" />
        </mxCell>
        <mxCell id="eD3fXNo9wMKI3Vn864ez-46" value="function find_patients(conn; start_year = nothing,&lt;br&gt;&amp;nbsp;&amp;nbsp;&amp;nbsp;&amp;nbsp;&amp;nbsp;&amp;nbsp;&amp;nbsp;&amp;nbsp;&amp;nbsp;&amp;nbsp;&amp;nbsp;&amp;nbsp;&amp;nbsp;&amp;nbsp;&amp;nbsp;&amp;nbsp;&amp;nbsp;&amp;nbsp;&amp;nbsp;&amp;nbsp;&amp;nbsp;&amp;nbsp;&amp;nbsp;&amp;nbsp;&amp;nbsp;&amp;nbsp;&amp;nbsp;&amp;nbsp; end_year = nothing,&lt;br&gt;&amp;nbsp;&amp;nbsp;&amp;nbsp;&amp;nbsp;&amp;nbsp;&amp;nbsp;&amp;nbsp;&amp;nbsp;&amp;nbsp;&amp;nbsp;&amp;nbsp;&amp;nbsp;&amp;nbsp;&amp;nbsp;&amp;nbsp;&amp;nbsp;&amp;nbsp;&amp;nbsp;&amp;nbsp;&amp;nbsp;&amp;nbsp;&amp;nbsp;&amp;nbsp;&amp;nbsp;&amp;nbsp;&amp;nbsp;&amp;nbsp;&amp;nbsp; state = nothing,&lt;br&gt;&amp;nbsp;&amp;nbsp;&amp;nbsp;&amp;nbsp;&amp;nbsp;&amp;nbsp;&amp;nbsp;&amp;nbsp;&amp;nbsp;&amp;nbsp;&amp;nbsp;&amp;nbsp;&amp;nbsp;&amp;nbsp;&amp;nbsp;&amp;nbsp;&amp;nbsp;&amp;nbsp;&amp;nbsp;&amp;nbsp;&amp;nbsp;&amp;nbsp;&amp;nbsp;&amp;nbsp;&amp;nbsp;&amp;nbsp;&amp;nbsp;&amp;nbsp; conditions = [],&lt;br&gt;&amp;nbsp;&amp;nbsp;&amp;nbsp;&amp;nbsp;&amp;nbsp;&amp;nbsp;&amp;nbsp;&amp;nbsp;&amp;nbsp;&amp;nbsp;&amp;nbsp;&amp;nbsp;&amp;nbsp;&amp;nbsp;&amp;nbsp;&amp;nbsp;&amp;nbsp;&amp;nbsp;&amp;nbsp;&amp;nbsp;&amp;nbsp;&amp;nbsp;&amp;nbsp;&amp;nbsp;&amp;nbsp;&amp;nbsp;&amp;nbsp;&amp;nbsp; latest_visit = nothing)&lt;br&gt;&amp;nbsp;&amp;nbsp;&amp;nbsp; &lt;font style=&quot;font-size: 64px&quot;&gt;???&lt;/font&gt;&lt;br&gt;&amp;nbsp;&amp;nbsp;&amp;nbsp; DBInterface.execute(conn, sql)&lt;br&gt;end" style="text;html=1;align=left;verticalAlign=middle;resizable=0;points=[];autosize=1;strokeColor=none;fontSize=32;fontFamily=Ubuntu Mono;fontColor=#000000;fontSource=https%3A%2F%2Ffonts.googleapis.com%2Fcss%3Ffamily%3DUbuntu%2BMono;" vertex="1" parent="eD3fXNo9wMKI3Vn864ez-1">
          <mxGeometry x="60" y="2235" width="855" height="315" as="geometry" />
        </mxCell>
      </root>
    </mxGraphModel>
  </diagram>
</mxfile>
